<svg xmlns="http://www.w3.org/2000/svg" viewBox="0 0 900 580">
  <defs>
    <linearGradient id="bgPL" x1="0" y1="0" x2="0" y2="1">
      <stop offset="0%" stop-color="#FAFBFC"/>
      <stop offset="100%" stop-color="#F0F2F5"/>
    </linearGradient>
    <linearGradient id="wrsBar" x1="0" y1="0" x2="1" y2="0">
      <stop offset="0%" stop-color="#D73A49"/>
      <stop offset="39%" stop-color="#D73A49"/>
      <stop offset="40%" stop-color="#B89B00"/>
      <stop offset="59%" stop-color="#B89B00"/>
      <stop offset="60%" stop-color="#4A90D9"/>
      <stop offset="74%" stop-color="#4A90D9"/>
      <stop offset="75%" stop-color="#2E75B6"/>
      <stop offset="89%" stop-color="#2E75B6"/>
      <stop offset="90%" stop-color="#0E8A16"/>
      <stop offset="100%" stop-color="#0E8A16"/>
    </linearGradient>
    <marker id="arwD" markerWidth="7" markerHeight="5" refX="7" refY="2.5" orient="auto">
      <polygon points="0,0 7,2.5 0,5" fill="#1A1A2E" opacity="0.4"/>
    </marker>
  </defs>

  <!-- Background -->
  <rect width="900" height="580" rx="12" fill="url(#bgPL)"/>

  <!-- Title -->
  <text x="450" y="38" text-anchor="middle" font-family="Georgia, serif" font-size="20" font-weight="bold" fill="#1A1A2E">Product Application Layer</text>
  <text x="450" y="60" text-anchor="middle" font-family="Georgia, serif" font-size="12" fill="#888">How WIDAI data becomes assessment products — PE Due Diligence as beachhead (ADR-002)</text>

  <!-- ═══════════════════════════════════════════════ -->
  <!-- PE ASSESSMENT FLOW -->
  <!-- ═══════════════════════════════════════════════ -->
  <text x="60" y="95" font-family="Georgia, serif" font-size="13" font-weight="bold" fill="#1A1A2E">PE Workforce Due Diligence — 30-Day Engagement</text>
  <text x="820" y="95" text-anchor="end" font-family="Georgia, serif" font-size="10" fill="#888">R04 PE Assessment Methodology</text>

  <!-- Phase timeline -->
  <rect x="40" y="110" width="152" height="70" rx="8" fill="#fff" stroke="#1A1A2E" stroke-width="1" stroke-opacity="0.2"/>
  <rect x="40" y="110" width="152" height="22" rx="8" fill="#1A1A2E" opacity="0.06"/>
  <rect x="40" y="126" width="152" height="6" rx="0" fill="#fff"/>
  <text x="116" y="126" text-anchor="middle" font-family="Georgia, serif" font-size="10" font-weight="bold" fill="#1A1A2E">Phase 1: Scope</text>
  <text x="55" y="148" font-family="Georgia, serif" font-size="9" fill="#888">Days 1–5</text>
  <text x="55" y="162" font-family="Georgia, serif" font-size="9" fill="#555">Target team definition</text>
  <text x="55" y="174" font-family="Georgia, serif" font-size="9" fill="#555">Role mapping to WIDAI</text>

  <line x1="192" y1="145" x2="207" y2="145" stroke="#1A1A2E" stroke-width="1.5" marker-end="url(#arwD)"/>

  <rect x="212" y="110" width="152" height="70" rx="8" fill="#fff" stroke="#1A1A2E" stroke-width="1" stroke-opacity="0.2"/>
  <rect x="212" y="110" width="152" height="22" rx="8" fill="#1A1A2E" opacity="0.06"/>
  <rect x="212" y="126" width="152" height="6" rx="0" fill="#fff"/>
  <text x="288" y="126" text-anchor="middle" font-family="Georgia, serif" font-size="10" font-weight="bold" fill="#1A1A2E">Phase 2: Assess</text>
  <text x="227" y="148" font-family="Georgia, serif" font-size="9" fill="#888">Days 6–15</text>
  <text x="227" y="162" font-family="Georgia, serif" font-size="9" fill="#555">KSA gap measurement</text>
  <text x="227" y="174" font-family="Georgia, serif" font-size="9" fill="#555">4-dimension scoring</text>

  <line x1="364" y1="145" x2="379" y2="145" stroke="#1A1A2E" stroke-width="1.5" marker-end="url(#arwD)"/>

  <rect x="384" y="110" width="152" height="70" rx="8" fill="#fff" stroke="#1A1A2E" stroke-width="1" stroke-opacity="0.2"/>
  <rect x="384" y="110" width="152" height="22" rx="8" fill="#1A1A2E" opacity="0.06"/>
  <rect x="384" y="126" width="152" height="6" rx="0" fill="#fff"/>
  <text x="460" y="126" text-anchor="middle" font-family="Georgia, serif" font-size="10" font-weight="bold" fill="#1A1A2E">Phase 3: Analyze</text>
  <text x="399" y="148" font-family="Georgia, serif" font-size="9" fill="#888">Days 16–22</text>
  <text x="399" y="162" font-family="Georgia, serif" font-size="9" fill="#555">Risk identification</text>
  <text x="399" y="174" font-family="Georgia, serif" font-size="9" fill="#555">Key person analysis</text>

  <line x1="536" y1="145" x2="551" y2="145" stroke="#1A1A2E" stroke-width="1.5" marker-end="url(#arwD)"/>

  <rect x="556" y="110" width="152" height="70" rx="8" fill="#fff" stroke="#1A1A2E" stroke-width="1" stroke-opacity="0.2"/>
  <rect x="556" y="110" width="152" height="22" rx="8" fill="#1A1A2E" opacity="0.06"/>
  <rect x="556" y="126" width="152" height="6" rx="0" fill="#fff"/>
  <text x="632" y="126" text-anchor="middle" font-family="Georgia, serif" font-size="10" font-weight="bold" fill="#1A1A2E">Phase 4: Model</text>
  <text x="571" y="148" font-family="Georgia, serif" font-size="9" fill="#888">Days 23–27</text>
  <text x="571" y="162" font-family="Georgia, serif" font-size="9" fill="#555">Investment modeling</text>
  <text x="571" y="174" font-family="Georgia, serif" font-size="9" fill="#555">Year 1–3 projections</text>

  <line x1="708" y1="145" x2="723" y2="145" stroke="#1A1A2E" stroke-width="1.5" marker-end="url(#arwD)"/>

  <rect x="728" y="110" width="132" height="70" rx="8" fill="#1A1A2E" opacity="0.06" stroke="#1A1A2E" stroke-width="1.5" stroke-opacity="0.3"/>
  <rect x="728" y="110" width="132" height="22" rx="8" fill="#1A1A2E" opacity="0.1"/>
  <rect x="728" y="126" width="132" height="6" rx="0" fill="#1A1A2E" opacity="0.06"/>
  <text x="794" y="126" text-anchor="middle" font-family="Georgia, serif" font-size="10" font-weight="bold" fill="#1A1A2E">Phase 5: Deliver</text>
  <text x="743" y="148" font-family="Georgia, serif" font-size="9" fill="#888">Days 28–30</text>
  <text x="743" y="162" font-family="Georgia, serif" font-size="9" fill="#555">Executive deliverables</text>
  <text x="743" y="174" font-family="Georgia, serif" font-size="9" fill="#555">Board presentation</text>

  <!-- ═══════════════════════════════════════════════ -->
  <!-- SCORING MODEL -->
  <!-- ═══════════════════════════════════════════════ -->
  <line x1="60" y1="202" x2="840" y2="202" stroke="#1A1A2E" stroke-width="1" opacity="0.1"/>
  <text x="60" y="232" font-family="Georgia, serif" font-size="13" font-weight="bold" fill="#1A1A2E">Four-Dimension Scoring Model</text>
  <text x="820" y="232" text-anchor="end" font-family="Georgia, serif" font-size="10" fill="#888">ADR-011</text>

  <!-- Dimension cards -->
  <rect x="40" y="248" width="195" height="90" rx="8" fill="#fff" stroke="#2E75B6" stroke-width="1.5" stroke-opacity="0.3"/>
  <rect x="40" y="248" width="195" height="24" rx="8" fill="#2E75B6" opacity="0.08"/>
  <rect x="40" y="265" width="195" height="7" rx="0" fill="#fff"/>
  <text x="137" y="265" text-anchor="middle" font-family="Georgia, serif" font-size="11" font-weight="bold" fill="#2E75B6">Coverage</text>
  <text x="55" y="290" font-family="Georgia, serif" font-size="9" fill="#1A1A2E">How many required roles</text>
  <text x="55" y="304" font-family="Georgia, serif" font-size="9" fill="#1A1A2E">does the team have?</text>
  <text x="55" y="324" font-family="Georgia, serif" font-size="9" fill="#888">Role presence vs. taxonomy</text>

  <rect x="250" y="248" width="195" height="90" rx="8" fill="#fff" stroke="#2E75B6" stroke-width="1.5" stroke-opacity="0.3"/>
  <rect x="250" y="248" width="195" height="24" rx="8" fill="#2E75B6" opacity="0.08"/>
  <rect x="250" y="265" width="195" height="7" rx="0" fill="#fff"/>
  <text x="347" y="265" text-anchor="middle" font-family="Georgia, serif" font-size="11" font-weight="bold" fill="#2E75B6">Capability</text>
  <text x="265" y="290" font-family="Georgia, serif" font-size="9" fill="#1A1A2E">How deep are their KSAs</text>
  <text x="265" y="304" font-family="Georgia, serif" font-size="9" fill="#1A1A2E">against the benchmark?</text>
  <text x="265" y="324" font-family="Georgia, serif" font-size="9" fill="#888">KSA depth vs. DCI target</text>

  <rect x="460" y="248" width="195" height="90" rx="8" fill="#fff" stroke="#2E75B6" stroke-width="1.5" stroke-opacity="0.3"/>
  <rect x="460" y="248" width="195" height="24" rx="8" fill="#2E75B6" opacity="0.08"/>
  <rect x="460" y="265" width="195" height="7" rx="0" fill="#fff"/>
  <text x="557" y="265" text-anchor="middle" font-family="Georgia, serif" font-size="11" font-weight="bold" fill="#2E75B6">Criticality</text>
  <text x="475" y="290" font-family="Georgia, serif" font-size="9" fill="#1A1A2E">Which gaps carry the</text>
  <text x="475" y="304" font-family="Georgia, serif" font-size="9" fill="#1A1A2E">highest business risk?</text>
  <text x="475" y="324" font-family="Georgia, serif" font-size="9" fill="#888">Risk-weighted gap scoring</text>

  <rect x="670" y="248" width="190" height="90" rx="8" fill="#fff" stroke="#2E75B6" stroke-width="1.5" stroke-opacity="0.3"/>
  <rect x="670" y="248" width="190" height="24" rx="8" fill="#2E75B6" opacity="0.08"/>
  <rect x="670" y="265" width="190" height="7" rx="0" fill="#fff"/>
  <text x="765" y="265" text-anchor="middle" font-family="Georgia, serif" font-size="11" font-weight="bold" fill="#2E75B6">Concentration</text>
  <text x="685" y="290" font-family="Georgia, serif" font-size="9" fill="#1A1A2E">Where is knowledge</text>
  <text x="685" y="304" font-family="Georgia, serif" font-size="9" fill="#1A1A2E">concentrated in one person?</text>
  <text x="685" y="324" font-family="Georgia, serif" font-size="9" fill="#888">Key-person risk mapping</text>

  <!-- Converge arrow -->
  <line x1="137" y1="338" x2="137" y2="365" stroke="#2E75B6" stroke-width="1" opacity="0.25"/>
  <line x1="347" y1="338" x2="347" y2="365" stroke="#2E75B6" stroke-width="1" opacity="0.25"/>
  <line x1="557" y1="338" x2="557" y2="365" stroke="#2E75B6" stroke-width="1" opacity="0.25"/>
  <line x1="765" y1="338" x2="765" y2="365" stroke="#2E75B6" stroke-width="1" opacity="0.25"/>
  <line x1="137" y1="365" x2="765" y2="365" stroke="#2E75B6" stroke-width="1" opacity="0.25"/>
  <line x1="450" y1="365" x2="450" y2="385" stroke="#2E75B6" stroke-width="1.5" opacity="0.4"/>
  <polygon points="444,382 450,392 456,382" fill="#2E75B6" opacity="0.4"/>

  <!-- WRS Output -->
  <rect x="250" y="395" width="400" height="55" rx="8" fill="#fff" stroke="#1A1A2E" stroke-width="2" stroke-opacity="0.3"/>
  <text x="450" y="418" text-anchor="middle" font-family="Georgia, serif" font-size="14" font-weight="bold" fill="#1A1A2E">Workforce Readiness Score (WRS)</text>
  <text x="450" y="438" text-anchor="middle" font-family="Georgia, serif" font-size="11" fill="#555">Composite 0–100 score with dimension breakdowns</text>

  <!-- WRS scale bar -->
  <rect x="100" y="465" width="700" height="14" rx="7" fill="url(#wrsBar)" opacity="0.7"/>
  <text x="100" y="494" font-family="Georgia, serif" font-size="9" fill="#D73A49" font-weight="bold">Critical</text>
  <text x="100" y="506" font-family="Georgia, serif" font-size="8" fill="#888">0–39</text>
  <text x="280" y="494" text-anchor="middle" font-family="Georgia, serif" font-size="9" fill="#B89B00" font-weight="bold">At-Risk</text>
  <text x="280" y="506" text-anchor="middle" font-family="Georgia, serif" font-size="8" fill="#888">40–59</text>
  <text x="450" y="494" text-anchor="middle" font-family="Georgia, serif" font-size="9" fill="#4A90D9" font-weight="bold">Adequate</text>
  <text x="450" y="506" text-anchor="middle" font-family="Georgia, serif" font-size="8" fill="#888">60–74</text>
  <text x="625" y="494" text-anchor="middle" font-family="Georgia, serif" font-size="9" fill="#2E75B6" font-weight="bold">Strong</text>
  <text x="625" y="506" text-anchor="middle" font-family="Georgia, serif" font-size="8" fill="#888">75–89</text>
  <text x="780" y="494" font-family="Georgia, serif" font-size="9" fill="#0E8A16" font-weight="bold">Exceptional</text>
  <text x="780" y="506" font-family="Georgia, serif" font-size="8" fill="#888">90–100</text>

  <!-- Deliverables -->
  <line x1="60" y1="522" x2="840" y2="522" stroke="#1A1A2E" stroke-width="1" opacity="0.1"/>
  <text x="60" y="544" font-family="Georgia, serif" font-size="10" font-weight="bold" fill="#1A1A2E">Deliverables:</text>
  <rect x="145" y="532" width="130" height="18" rx="9" fill="#1A1A2E" opacity="0.06"/>
  <text x="210" y="544" text-anchor="middle" font-family="Georgia, serif" font-size="9" fill="#1A1A2E">Executive Summary</text>
  <rect x="285" y="532" width="115" height="18" rx="9" fill="#1A1A2E" opacity="0.06"/>
  <text x="342" y="544" text-anchor="middle" font-family="Georgia, serif" font-size="9" fill="#1A1A2E">Capability Map</text>
  <rect x="410" y="532" width="105" height="18" rx="9" fill="#1A1A2E" opacity="0.06"/>
  <text x="462" y="544" text-anchor="middle" font-family="Georgia, serif" font-size="9" fill="#1A1A2E">Gap Analysis</text>
  <rect x="525" y="532" width="140" height="18" rx="9" fill="#1A1A2E" opacity="0.06"/>
  <text x="595" y="544" text-anchor="middle" font-family="Georgia, serif" font-size="9" fill="#1A1A2E">Key Person Risk Map</text>
  <rect x="675" y="532" width="165" height="18" rx="9" fill="#1A1A2E" opacity="0.06"/>
  <text x="757" y="544" text-anchor="middle" font-family="Georgia, serif" font-size="9" fill="#1A1A2E">Yr 1–3 Investment Model</text>

  <!-- Footer -->
  <text x="450" y="574" text-anchor="middle" font-family="Georgia, serif" font-size="10" font-style="italic" fill="#888">One PE firm adoption cascades to assessments across every portfolio company.</text>
</svg>
