<svg xmlns="http://www.w3.org/2000/svg" viewBox="0 0 900 380">
  <defs>
    <linearGradient id="bgS" x1="0" y1="0" x2="0" y2="1">
      <stop offset="0%" stop-color="#FAFBFC"/>
      <stop offset="100%" stop-color="#F0F2F5"/>
    </linearGradient>
  </defs>
  <rect width="900" height="380" rx="12" fill="url(#bgS)"/>
  <text x="450" y="36" text-anchor="middle" font-family="Georgia, serif" font-size="18" font-weight="bold" fill="#1A1A2E">How WIDAI Scores Framework Relationships</text>
  <text x="450" y="56" text-anchor="middle" font-family="Georgia, serif" font-size="12" fill="#888">NIST IR 8477 Set Theory Relationship Mapping — multi-method computational scoring</text>
  <rect x="40" y="90" width="160" height="80" rx="8" fill="#1A1A2E" opacity="0.08"/>
  <text x="120" y="120" text-anchor="middle" font-family="Georgia, serif" font-size="13" font-weight="bold" fill="#1A1A2E">Source Framework</text>
  <text x="120" y="140" text-anchor="middle" font-family="Georgia, serif" font-size="11" fill="#888">e.g., O*NET 30.2</text>
  <text x="120" y="156" text-anchor="middle" font-family="Georgia, serif" font-size="11" fill="#888">126 elements</text>
  <line x1="200" y1="130" x2="240" y2="130" stroke="#2E75B6" stroke-width="2" opacity="0.5"/>
  <polygon points="238,124 250,130 238,136" fill="#2E75B6" opacity="0.5"/>
  <rect x="250" y="78" width="280" height="106" rx="8" fill="#2E75B6" opacity="0.08" stroke="#2E75B6" stroke-width="1" stroke-opacity="0.3"/>
  <text x="390" y="100" text-anchor="middle" font-family="Georgia, serif" font-size="13" font-weight="bold" fill="#2E75B6">Scoring Pipeline</text>
  <rect x="268" y="110" width="244" height="24" rx="4" fill="#2E75B6" opacity="0.15"/>
  <text x="390" y="127" text-anchor="middle" font-family="Georgia, serif" font-size="11" font-weight="bold" fill="#1A1A2E">Primary: Cross-Encoder STS</text>
  <rect x="268" y="140" width="118" height="20" rx="4" fill="#1A1A2E" opacity="0.06"/>
  <text x="327" y="154" text-anchor="middle" font-family="Georgia, serif" font-size="9" fill="#555">BERTScore P/R/F1</text>
  <rect x="394" y="140" width="118" height="20" rx="4" fill="#1A1A2E" opacity="0.06"/>
  <text x="453" y="154" text-anchor="middle" font-family="Georgia, serif" font-size="9" fill="#555">NLI Cross-Encoder</text>
  <rect x="268" y="164" width="118" height="20" rx="4" fill="#1A1A2E" opacity="0.06"/>
  <text x="327" y="178" text-anchor="middle" font-family="Georgia, serif" font-size="9" fill="#555">Bi-Encoder Cosine</text>
  <rect x="394" y="164" width="118" height="20" rx="4" fill="#1A1A2E" opacity="0.06"/>
  <text x="453" y="178" text-anchor="middle" font-family="Georgia, serif" font-size="9" fill="#555">Jaccard Token</text>
  <line x1="530" y1="130" x2="570" y2="130" stroke="#2E75B6" stroke-width="2" opacity="0.5"/>
  <polygon points="568,124 580,130 568,136" fill="#2E75B6" opacity="0.5"/>
  <rect x="580" y="78" width="280" height="106" rx="8" fill="#1A1A2E" opacity="0.08"/>
  <text x="720" y="100" text-anchor="middle" font-family="Georgia, serif" font-size="13" font-weight="bold" fill="#1A1A2E">Per-Element Output</text>
  <text x="720" y="120" text-anchor="middle" font-family="Georgia, serif" font-size="11" fill="#555">Relationship type (NIST 5-way)</text>
  <text x="720" y="137" text-anchor="middle" font-family="Georgia, serif" font-size="11" fill="#555">Strength score (0–10)</text>
  <text x="720" y="154" text-anchor="middle" font-family="Georgia, serif" font-size="11" fill="#555">5 method scores + significance</text>
  <text x="720" y="171" text-anchor="middle" font-family="Georgia, serif" font-size="11" fill="#555">Provenance + rationale</text>
  <line x1="60" y1="210" x2="840" y2="210" stroke="#1A1A2E" stroke-width="1" opacity="0.12"/>
  <text x="450" y="240" text-anchor="middle" font-family="Georgia, serif" font-size="14" font-weight="bold" fill="#1A1A2E">O*NET 30.2 Mapping Results — Relationship Distribution</text>
  <text x="60" y="275" font-family="Georgia, serif" font-size="12" fill="#1A1A2E">Intersects</text>
  <rect x="180" y="262" width="410" height="18" rx="4" fill="#2E75B6" opacity="0.75"/>
  <text x="598" y="276" font-family="Georgia, serif" font-size="12" font-weight="bold" fill="#2E75B6">82</text>
  <text x="60" y="303" font-family="Georgia, serif" font-size="12" fill="#1A1A2E">No relationship</text>
  <rect x="180" y="290" width="115" height="18" rx="4" fill="#888" opacity="0.45"/>
  <text x="303" y="304" font-family="Georgia, serif" font-size="12" font-weight="bold" fill="#888">23</text>
  <text x="60" y="331" font-family="Georgia, serif" font-size="12" fill="#1A1A2E">Superset</text>
  <rect x="180" y="318" width="85" height="18" rx="4" fill="#0E8A16" opacity="0.55"/>
  <text x="273" y="332" font-family="Georgia, serif" font-size="12" font-weight="bold" fill="#0E8A16">17</text>
  <text x="60" y="359" font-family="Georgia, serif" font-size="12" fill="#1A1A2E">Equal</text>
  <rect x="180" y="346" width="20" height="18" rx="4" fill="#FBCA04" opacity="0.65"/>
  <text x="208" y="360" font-family="Georgia, serif" font-size="12" font-weight="bold" fill="#B89B00">4</text>
</svg>
